<svg width="500" height="500" viewBox="0 0 500 500" fill="none" xmlns="http://www.w3.org/2000/svg">
<path d="M444.44 0H55.5602C24.8752 0 0 24.8752 0 55.5602V444.44C0 475.125 24.8752 500 55.5602 500H444.44C475.125 500 500 475.125 500 444.44V55.5602C500 24.8752 475.125 0 444.44 0Z" fill="#FD8D3A"/>
<path d="M64.1783 125H269.195C281.61 125 291.667 134.768 291.667 146.826V353.132C291.667 372.763 267.075 382.409 253.029 368.292C184.695 299.523 116.346 230.755 48.0119 161.986C34.2446 148.126 44.3573 125.014 64.1783 125.014V125Z" fill="#FAF9F4"/>
<path d="M305.556 220.569V145.708C305.556 141.181 311.528 137.5 318.903 137.5H445.069C457.069 137.5 462.972 146.486 454.333 151.611C412.278 176.569 370.222 201.514 328.167 226.472C319.694 231.5 305.556 227.806 305.556 220.569Z" fill="#FAF9F4"/>
<path d="M305.556 289.062V366.521C305.556 371.201 309.25 375.007 313.806 375.007H391.75C399.167 375.007 402.806 365.715 397.472 360.41C371.486 334.59 345.514 308.771 319.528 282.951C314.292 277.757 305.556 281.562 305.556 289.062Z" fill="#FAF9F4"/>
<path d="M225.536 360.68L171.313 305.374C168.036 302.027 162.73 301.902 159.48 305.082L103.827 359.652C98.5357 364.846 102.438 374.027 109.952 374.082C146.577 374.332 183.202 374.582 219.827 374.818C227.202 374.874 230.772 366.027 225.522 360.68H225.536Z" fill="#FAF9F4"/>
</svg>
