<?xml version="1.0" standalone="no"?>
<!DOCTYPE svg PUBLIC "-//W3C//DTD SVG 20010904//EN"
 "http://www.w3.org/TR/2001/REC-SVG-20010904/DTD/svg10.dtd">
<svg version="1.0" xmlns="http://www.w3.org/2000/svg"
 width="700.000000pt" height="700.000000pt" viewBox="0 0 700.000000 700.000000"
 preserveAspectRatio="xMidYMid meet">
<metadata>
Created by potrace 1.14, written by Peter Selinger 2001-2017
</metadata>
<g transform="translate(0.000000,700.000000) scale(0.100000,-0.100000)"
fill="#000000" stroke="none">
<path d="M630 6985 c-314 -63 -555 -307 -616 -623 -21 -110 -21 -5614 0 -5724
61 -319 305 -562 624 -624 111 -21 5614 -21 5725 0 194 37 375 150 483 302 51
71 106 184 131 269 17 57 18 209 21 2870 2 2096 0 2829 -9 2885 -50 328 -297
582 -627 646 -105 20 -5631 19 -5732 -1z m3277 -1767 c63 -34 115 -84 145
-141 l23 -42 0 -1535 0 -1535 -23 -42 c-87 -163 -306 -222 -454 -122 -56 37
-2946 2949 -2975 2997 -38 62 -48 134 -29 211 27 109 96 187 198 222 51 18
120 18 1558 16 l1505 -2 52 -27z m2426 -162 c39 -16 87 -70 87 -97 0 -11 -15
-35 -32 -53 -34 -35 -1777 -1073 -1837 -1094 -77 -27 -191 -9 -242 39 l-29 27
0 554 c0 620 -4 583 74 619 39 18 85 19 994 19 782 0 958 -2 985 -14z m-1885
-2000 c15 -8 278 -266 585 -573 612 -613 590 -587 552 -667 -33 -68 -11 -66
-645 -66 -627 0 -613 -1 -645 60 -14 26 -15 104 -13 614 3 568 4 585 23 606
37 41 95 51 143 26z m-2081 -309 c12 -7 174 -167 360 -358 486 -496 463 -471
463 -514 0 -50 -25 -94 -63 -110 -45 -19 -1586 -9 -1634 11 -63 25 -92 111
-55 165 26 38 804 799 827 809 29 13 77 11 102 -3z"/>
</g>
</svg>
